<svg xmlns="http://www.w3.org/2000/svg" viewBox="0 0 128 128" width="128" height="128">
  <defs>
    <linearGradient id="cfGradient" x1="0%" y1="0%" x2="100%" y2="100%">
      <stop offset="0%" style="stop-color:#F6821F;stop-opacity:1" />
      <stop offset="100%" style="stop-color:#FAAD3F;stop-opacity:1" />
    </linearGradient>
    <linearGradient id="cloudGradient" x1="0%" y1="0%" x2="0%" y2="100%">
      <stop offset="0%" style="stop-color:#ffffff;stop-opacity:1" />
      <stop offset="100%" style="stop-color:#f0f0f0;stop-opacity:1" />
    </linearGradient>
  </defs>

  <!-- Background circle -->
  <circle cx="64" cy="64" r="60" fill="url(#cfGradient)"/>

  <!-- Cloud shape representing R2/CDN -->
  <path d="M94 72c0-2.2-1.8-4-4-4h-2c0-11-9-20-20-20-9.4 0-17.3 6.5-19.4 15.3C46.9 62.5 45 61 42.5 61c-4.1 0-7.5 3.4-7.5 7.5 0 .5.1 1 .2 1.5H34c-3.3 0-6 2.7-6 6s2.7 6 6 6h56c2.2 0 4-1.8 4-4z" fill="url(#cloudGradient)"/>

  <!-- Upload arrow -->
  <path d="M64 48l-12 12h8v14h8V60h8z" fill="#F6821F"/>

  <!-- Image/media icon inside cloud -->
  <g transform="translate(44, 68)">
    <!-- Small image frame -->
    <rect x="0" y="0" width="18" height="14" rx="2" fill="#F6821F" opacity="0.9"/>
    <!-- Mountain/landscape in image -->
    <path d="M2 12l4-5 3 3 5-6 2 8z" fill="#ffffff"/>
    <!-- Sun in image -->
    <circle cx="13" cy="4" r="2" fill="#FAAD3F"/>
  </g>

  <!-- Speed lines representing CDN/optimization -->
  <g stroke="#ffffff" stroke-width="2" stroke-linecap="round" opacity="0.7">
    <line x1="20" y1="50" x2="28" y2="50"/>
    <line x1="18" y1="56" x2="26" y2="56"/>
    <line x1="20" y1="62" x2="28" y2="62"/>
  </g>
</svg>
